<svg width="16" height="16" viewBox="0 0 16 16" fill="none" xmlns="http://www.w3.org/2000/svg">
<path d="M13.9004 8C13.9004 4.74152 11.2585 2.09961 8 2.09961C4.74152 2.09961 2.09961 4.74152 2.09961 8C2.09961 11.2585 4.74152 13.9004 8 13.9004V15C4.13401 15 1 11.866 1 8C1 4.13401 4.13401 1 8 1C11.866 1 15 4.13401 15 8C15 11.866 11.866 15 8 15V13.9004C11.2585 13.9004 13.9004 11.2585 13.9004 8Z" fill="black"/>
<path d="M7.4502 7.51953V4.5C7.4502 4.19624 7.69624 3.9502 8 3.9502C8.30376 3.9502 8.5498 4.19624 8.5498 4.5V7.51953C8.54985 7.65618 8.61204 7.78573 8.71875 7.87109L10.8438 9.57031C11.0809 9.76007 11.1194 10.1066 10.9297 10.3438C10.7399 10.5809 10.3934 10.6194 10.1562 10.4297L8.03125 8.72949C7.66385 8.43537 7.45024 7.99017 7.4502 7.51953Z" fill="black"/>
</svg>
