<svg width="16" height="16" viewBox="0 0 16 16" fill="none" xmlns="http://www.w3.org/2000/svg">
<path d="M13.499 2.9502C14.3551 2.9502 15.0488 3.64396 15.0488 4.5V11.5C15.0488 12.356 14.3551 13.0498 13.499 13.0498H2.49902C1.64298 13.0498 0.949219 12.356 0.949219 11.5V4.5C0.949219 3.64396 1.64298 2.9502 2.49902 2.9502H13.499ZM9.09473 9.68164C8.48943 10.2869 7.50861 10.2869 6.90332 9.68164L5.99902 8.77734L2.82617 11.9502H13.1719L9.99902 8.77734L9.09473 9.68164ZM2.04883 11.1729L5.22168 8L2.04883 4.82715V11.1729ZM10.7764 8L13.9492 11.1729V4.82715L10.7764 8ZM7.68066 8.9043C7.85638 9.07993 8.14167 9.07993 8.31738 8.9043L13.1719 4.0498H2.82617L7.68066 8.9043Z" fill="black"/>
</svg>
