<svg width="16" height="16" viewBox="0 0 16 16" fill="none" xmlns="http://www.w3.org/2000/svg">
<g clip-path="url(#clip0_392_1879)">
<path d="M2.34509 0.90625C3.04317 0.220294 4.22962 0.315843 4.85095 1.13574L5.92126 2.54883C6.42386 3.2124 6.36496 4.11682 5.79626 4.67578L5.5531 4.91504L5.54821 4.91992L5.53845 4.93164L5.50817 4.9707C5.48475 5.00489 5.45577 5.05556 5.43005 5.12305C5.3785 5.25847 5.34145 5.46074 5.38513 5.73926C5.47243 6.29549 5.88236 7.15171 7.14196 8.38965C8.40084 9.62685 9.27337 10.0326 9.84411 10.1191C10.1309 10.1626 10.3407 10.1249 10.4808 10.0732L10.5717 10.0342C10.5978 10.0208 10.6193 10.0069 10.6371 9.99512C10.6534 9.98428 10.6661 9.97507 10.6752 9.96777C10.6824 9.96178 10.6879 9.95703 10.6879 9.95703L10.6967 9.94824L10.7045 9.94141L11.0804 9.57129C11.5857 9.07475 12.3744 8.97086 13.0248 9.32031L14.6459 10.1914L14.8236 10.3008C15.6684 10.8909 15.8054 12.0902 15.0834 12.7998L13.8773 13.9844C13.5797 14.2768 13.2175 14.4838 12.808 14.5215C11.448 14.6468 8.09453 14.512 4.51208 10.9912C1.12864 7.66593 0.527039 4.82092 0.451534 3.50781C0.423294 3.01562 0.655849 2.56699 1.01306 2.21582L2.34509 0.90625ZM3.97497 1.7998C3.73646 1.48489 3.32073 1.49077 3.11657 1.69141L1.78454 3C1.58202 3.19904 1.54509 3.35709 1.55017 3.44531C1.61027 4.48867 2.09738 7.07464 5.28357 10.2061C8.59381 13.4594 11.6069 13.5272 12.7074 13.4258C12.8004 13.4171 12.9382 13.3649 13.1068 13.1992L14.3119 12.0146C14.5217 11.8083 14.5123 11.3682 14.1254 11.1602L12.5043 10.2891C12.2593 10.1574 11.9983 10.2126 11.8519 10.3564L11.4652 10.7363L11.0795 10.3438L11.0375 10.3008L11.0785 10.3447L11.1215 10.3916L11.4574 10.7432L11.4545 10.7451L11.4554 10.7461L11.4496 10.751L11.4418 10.7588L11.4291 10.7695L11.4252 10.7734C11.4088 10.7882 11.3919 10.8025 11.3763 10.8154L11.3744 10.8174C11.3377 10.8474 11.2947 10.8794 11.2455 10.9121L11.2445 10.9131C11.1442 10.9794 11.0165 11.0482 10.8607 11.1055C10.5413 11.2231 10.1438 11.2775 9.67907 11.207C8.77883 11.0705 7.70288 10.4843 6.37048 9.1748C5.03952 7.86676 4.43875 6.80537 4.29821 5.91016C4.2255 5.44686 4.28102 5.0497 4.40271 4.73047C4.46187 4.57537 4.53258 4.44836 4.60095 4.34863C4.63501 4.29896 4.66794 4.2559 4.6986 4.21973C4.71388 4.20172 4.7289 4.18557 4.74255 4.1709L4.75915 4.1543L4.76501 4.14746L4.77966 4.13281L5.16638 4.52441L5.37048 4.73047L5.45642 4.81641L4.78161 4.13086L5.02478 3.8916C5.18345 3.73568 5.22646 3.45338 5.04431 3.21289L3.97497 1.7998Z" fill="black"/>
<path d="M7.99939 2.4502C10.5123 2.4502 12.5492 4.4871 12.5492 7H11.4496C11.4496 5.09462 9.90477 3.5498 7.99939 3.5498V2.4502Z" fill="black"/>
<path d="M8.49939 -0.0498047C12.1169 -0.0498047 15.0492 2.88253 15.0492 6.5H13.9496C13.9496 3.49005 11.5093 1.0498 8.49939 1.0498V-0.0498047Z" fill="black"/>
</g>
<defs>
<clipPath id="clip0_392_1879">
<rect width="16" height="16" fill="white"/>
</clipPath>
</defs>
</svg>
