<svg width="16" height="16" viewBox="0 0 16 16" fill="none" xmlns="http://www.w3.org/2000/svg">
<path d="M13.9004 8C13.9004 4.74152 11.2585 2.09961 8 2.09961C4.74152 2.09961 2.09961 4.74152 2.09961 8C2.09961 11.2585 4.74152 13.9004 8 13.9004V15C4.13401 15 1 11.866 1 8C1 4.13401 4.13401 1 8 1C11.866 1 15 4.13401 15 8C15 11.866 11.866 15 8 15V13.9004C11.2585 13.9004 13.9004 11.2585 13.9004 8Z" fill="black"/>
<path d="M9.90039 8C9.90039 6.17941 9.58169 4.5832 9.11035 3.4834C8.87393 2.93178 8.62076 2.5554 8.39551 2.33301C8.17492 2.1153 8.04223 2.09961 8 2.09961C7.95777 2.09961 7.82508 2.1153 7.60449 2.33301C7.37924 2.5554 7.12607 2.93178 6.88965 3.4834C6.41831 4.5832 6.09961 6.17941 6.09961 8C6.09961 9.82059 6.41831 11.4168 6.88965 12.5166C7.12607 13.0682 7.37924 13.4446 7.60449 13.667C7.82508 13.8847 7.95777 13.9004 8 13.9004V15C6.34315 15 5 11.866 5 8C5 4.13401 6.34315 1 8 1C9.65685 1 11 4.13401 11 8C11 11.866 9.65685 15 8 15V13.9004C8.04223 13.9004 8.17492 13.8847 8.39551 13.667C8.62076 13.4446 8.87393 13.0682 9.11035 12.5166C9.58169 11.4168 9.90039 9.82059 9.90039 8Z" fill="black"/>
<path d="M14 5C14.3827 5.3827 14.3889 5.38926 14.3887 5.38965L14.3867 5.3916C14.3858 5.39254 14.384 5.39341 14.3828 5.39453C14.3806 5.39672 14.378 5.3995 14.375 5.40234C14.3689 5.40817 14.3608 5.41541 14.3516 5.42383C14.333 5.44074 14.3081 5.4631 14.2764 5.48926C14.2125 5.54181 14.1211 5.61168 14 5.69238C13.7575 5.85399 13.3955 6.05917 12.8916 6.26074C11.8821 6.66451 10.3119 7.0498 8 7.0498C5.68813 7.0498 4.11789 6.66451 3.1084 6.26074C2.60446 6.05917 2.24248 5.85399 2 5.69238C1.87895 5.61168 1.78746 5.54181 1.72363 5.48926C1.69187 5.4631 1.66705 5.44074 1.64844 5.42383C1.63918 5.41541 1.63111 5.40817 1.625 5.40234C1.62202 5.3995 1.61943 5.39672 1.61719 5.39453C1.61604 5.39341 1.61423 5.39254 1.61328 5.3916L1.6123 5.38965C1.61211 5.38926 1.6173 5.3827 2 5C2.34108 4.65892 2.38278 4.61672 2.3877 4.61133C2.39343 4.61652 2.40566 4.62548 2.42285 4.63965C2.45857 4.66906 2.51982 4.71664 2.60938 4.77637C2.78875 4.89595 3.08345 5.06598 3.5166 5.23926C4.38212 5.58546 5.81199 5.9502 8 5.9502C10.188 5.9502 11.6179 5.58546 12.4834 5.23926C12.9166 5.06598 13.2113 4.89595 13.3906 4.77637C13.4802 4.71664 13.5414 4.66906 13.5771 4.63965C13.5938 4.62591 13.6054 4.61665 13.6113 4.61133C13.6139 4.61441 13.6459 4.64588 14 5ZM2.38574 4.60742L2.38672 4.60938L2.38379 4.60645C2.38388 4.60653 2.38493 4.60663 2.38574 4.60742ZM13.6133 4.60938L13.6143 4.60742C13.6151 4.60663 13.6161 4.60653 13.6162 4.60645L13.6133 4.60938Z" fill="black"/>
<path d="M2.38867 11.3896L2.38672 11.3906L2.38574 11.3926C2.38493 11.3934 2.38388 11.3935 2.38379 11.3936C2.38379 11.3936 2.38608 11.392 2.38867 11.3896ZM13.6162 11.3936C13.6161 11.3935 13.6151 11.3934 13.6143 11.3926L13.6133 11.3906L13.6113 11.3887L13.6162 11.3936ZM8 8.9502C10.3119 8.9502 11.8821 9.33549 12.8916 9.73926C13.3955 9.94083 13.7575 10.146 14 10.3076C14.1211 10.3883 14.2125 10.4582 14.2764 10.5107C14.3081 10.5369 14.333 10.5593 14.3516 10.5762C14.3608 10.5846 14.3689 10.5918 14.375 10.5977C14.378 10.6005 14.3806 10.6033 14.3828 10.6055C14.384 10.6066 14.3858 10.6075 14.3867 10.6084L14.3877 10.6104C14.3879 10.6107 14.3827 10.6173 14 11C13.6459 11.3541 13.6139 11.3856 13.6113 11.3887C13.6054 11.3834 13.5938 11.3741 13.5771 11.3604C13.5414 11.3309 13.4802 11.2834 13.3906 11.2236C13.2113 11.1041 12.9166 10.934 12.4834 10.7607C11.6179 10.4145 10.188 10.0498 8 10.0498C5.81199 10.0498 4.38212 10.4145 3.5166 10.7607C3.08345 10.934 2.78875 11.1041 2.60938 11.2236C2.51982 11.2834 2.45857 11.3309 2.42285 11.3604C2.40566 11.3745 2.39343 11.3835 2.3877 11.3887C2.38278 11.3833 2.34108 11.3411 2 11C1.6173 10.6173 1.61113 10.6107 1.61133 10.6104L1.61328 10.6084C1.61423 10.6075 1.61604 10.6066 1.61719 10.6055C1.61943 10.6033 1.62202 10.6005 1.625 10.5977C1.63111 10.5918 1.63918 10.5846 1.64844 10.5762C1.66705 10.5593 1.69187 10.5369 1.72363 10.5107C1.78746 10.4582 1.87895 10.3883 2 10.3076C2.24248 10.146 2.60446 9.94083 3.1084 9.73926C4.11789 9.33549 5.68813 8.9502 8 8.9502Z" fill="black"/>
</svg>
