<svg width="24" height="24" viewBox="0 0 24 24" fill="none" xmlns="http://www.w3.org/2000/svg">
<rect width="24" height="24" rx="12" fill="#930338"/>
<path d="M15.2519 17.999H14.7254C14.726 17.8044 14.7656 17.6119 14.8417 17.433C14.9178 17.2542 15.0288 17.0927 15.1682 16.9582C15.4558 16.6807 15.8384 16.5259 16.2363 16.5259C16.6342 16.5259 17.0168 16.6807 17.3044 16.9582C17.444 17.0928 17.5552 17.2544 17.6314 17.4335C17.7075 17.6125 17.747 17.8052 17.7476 18H17.2214C17.2209 17.8729 17.195 17.7472 17.1455 17.6304C17.0959 17.5136 17.0236 17.408 16.9328 17.3199C16.7449 17.1401 16.4959 17.0399 16.237 17.0399C15.978 17.0399 15.729 17.1401 15.5411 17.3199C15.4503 17.408 15.3779 17.5135 15.3283 17.6304C15.2787 17.7472 15.2528 17.8729 15.2522 18L15.2519 17.999ZM11.0154 17.999H10.4886C10.4895 17.8044 10.5292 17.6119 10.6053 17.4331C10.6815 17.2543 10.7925 17.0928 10.9317 16.9582C11.2194 16.6805 11.6021 16.5255 12.0002 16.5255C12.3982 16.5255 12.781 16.6805 13.0686 16.9582C13.2078 17.093 13.3187 17.2548 13.3946 17.4337C13.4706 17.6127 13.5101 17.8053 13.5108 18H12.9839C12.9835 17.8729 12.9578 17.7473 12.9083 17.6305C12.8588 17.5137 12.7866 17.408 12.696 17.3199C12.508 17.1403 12.2588 17.0402 11.9998 17.0402C11.7409 17.0402 11.4917 17.1403 11.3037 17.3199C11.2129 17.4079 11.1405 17.5135 11.091 17.6304C11.0415 17.7472 11.0158 17.8729 11.0154 18V17.999ZM6.77829 17.999H6.25213C6.25294 17.8044 6.29252 17.612 6.36852 17.4332C6.44456 17.2544 6.55545 17.0928 6.69462 16.9582C6.98222 16.6807 7.3648 16.5259 7.76271 16.5259C8.16065 16.5259 8.54323 16.6807 8.83083 16.9582C8.97027 17.0929 9.08139 17.2546 9.1576 17.4336C9.23381 17.6125 9.27349 17.8052 9.27433 18H8.7475C8.74719 17.8729 8.72149 17.7471 8.67189 17.6303C8.6223 17.5134 8.54985 17.4078 8.45889 17.3199C8.27079 17.1402 8.02161 17.04 7.76254 17.04C7.50351 17.04 7.25429 17.1402 7.06622 17.3199C6.9754 17.4079 6.90305 17.5135 6.85352 17.6304C6.804 17.7472 6.77829 17.8729 6.77796 18L6.77829 17.999ZM5.11143 17.999H4.71833V16.0222H4V15.061L6.54443 12.8151V11.6685C6.45935 11.6486 6.38334 11.6006 6.3285 11.532C6.2737 11.4634 6.24326 11.3782 6.24205 11.2901C6.2445 11.1857 6.28728 11.0863 6.36127 11.0132C6.43526 10.9402 6.53461 10.8991 6.63817 10.8989H6.65699C6.75097 10.8989 6.84183 10.9332 6.9127 10.9955C6.98353 11.0578 7.0296 11.144 7.04236 11.2379C7.05496 11.3344 7.03121 11.432 6.97583 11.5117C6.92046 11.5913 6.8375 11.647 6.74335 11.6678V11.7176H8.96083V9.5025H7.82386L10.1422 8.53289L11.9871 5.81297C11.8824 5.80943 11.7832 5.76472 11.7108 5.68838C11.6383 5.61204 11.5983 5.51014 11.5993 5.40445C11.5993 5.29718 11.6416 5.19431 11.7167 5.11846C11.7919 5.04261 11.8939 5 12.0002 5C12.1065 5 12.2084 5.04261 12.2836 5.11846C12.3588 5.19431 12.401 5.29718 12.401 5.40445C12.4021 5.51016 12.3622 5.61212 12.2897 5.68847C12.2172 5.76483 12.118 5.80952 12.0133 5.81297L13.8585 8.53289L16.1768 9.5025H15.0398V11.7183H17.2574V11.6685C17.1722 11.6487 17.0962 11.6006 17.0414 11.532C16.9865 11.4634 16.9561 11.3782 16.955 11.2901C16.9641 11.1891 17.0104 11.0952 17.0847 11.0267C17.159 10.9583 17.2559 10.9204 17.3565 10.9204C17.4571 10.9204 17.554 10.9583 17.6283 11.0267C17.7025 11.0952 17.7488 11.1891 17.758 11.2901C17.7568 11.3782 17.7263 11.4634 17.6715 11.532C17.6167 11.6006 17.5407 11.6486 17.4556 11.6685V12.8151L20 15.061V16.0218H19.281V17.9983H18.8879V16.0222H13.4859C13.5336 15.9686 13.5891 15.9116 13.6475 15.8526C14.0301 15.5038 14.317 15.0613 14.4804 14.5678C14.6555 13.9467 14.3985 13.3592 13.6714 12.7194C13.382 12.4745 13.0791 12.2464 12.7642 12.036L12.7599 12.0329L12.7387 12.018C12.4739 11.8511 12.2263 11.658 11.9995 11.4417C11.7729 11.6583 11.5252 11.8514 11.2603 12.018L11.2392 12.0329L11.2348 12.036C10.9199 12.2463 10.617 12.4745 10.3276 12.7194C9.60023 13.3595 9.34321 13.947 9.51858 14.5678C9.68181 15.0612 9.96874 15.5037 10.3515 15.8523C10.41 15.913 10.4651 15.97 10.5131 16.0218C8.7186 16.0218 6.88444 16.0218 5.11143 16.0218V17.999ZM14.9061 15.7648H19.6885V15.3149H15.3698C15.2264 15.4764 15.0715 15.6265 14.9061 15.7648ZM12.0002 10.4867L12.1393 11.1261C12.1665 11.2735 12.4914 11.499 12.9023 11.7844L12.9077 11.7882L12.9376 11.8088C13.2593 12.0249 13.5687 12.259 13.8646 12.5099C14.4693 13.0408 14.7785 13.5568 14.8131 14.0874C14.8118 14.3853 14.7518 14.6799 14.6364 14.9542C14.521 15.2284 14.3526 15.4767 14.1411 15.6845C14.1246 15.7038 14.0631 15.7645 14.0624 15.7652H14.554C14.554 15.7652 14.6279 15.7099 14.6612 15.6838C15.2492 15.2245 15.5616 14.7864 15.6167 14.3457C15.6313 14.1516 15.6064 13.9564 15.5438 13.7723C15.4812 13.5881 15.3821 13.4187 15.2525 13.2744C14.8253 12.7823 14.3459 12.3389 13.8229 11.9523C13.6919 11.8468 13.5541 11.739 13.4197 11.6349C12.876 11.2654 12.397 10.8071 12.0025 10.2788C12.0014 10.2803 12.0005 10.2819 11.9998 10.2836C11.9991 10.2827 11.9986 10.2817 11.9982 10.2805C11.6034 10.8089 11.124 11.2672 10.58 11.6366C10.4456 11.7407 10.3071 11.8485 10.1768 11.9536C9.65379 12.3402 9.1745 12.7835 8.7475 13.2758C8.61796 13.42 8.51887 13.5894 8.45621 13.7735C8.39354 13.9576 8.36861 14.1526 8.38296 14.3467C8.43806 14.7874 8.75018 15.2258 9.33884 15.6852C9.37241 15.712 9.44499 15.7662 9.446 15.7665H9.93755C9.93755 15.7665 9.92882 15.7584 9.91874 15.7482C9.89925 15.7282 9.86934 15.6984 9.85893 15.6859C9.64737 15.478 9.479 15.2298 9.36361 14.9555C9.24826 14.6813 9.18818 14.3867 9.18697 14.0887C9.22057 13.5582 9.53235 13.0422 10.1358 12.5113C10.4325 12.2593 10.7431 12.0244 11.0661 11.8078L11.092 11.7892L11.0974 11.7854C11.5083 11.5 11.8329 11.2742 11.8604 11.1271L11.9995 10.4877L12.0002 10.4867ZM4.31078 15.7652H9.09356C8.92834 15.6268 8.7735 15.4763 8.63023 15.3149H4.31112L4.31078 15.7652ZM15.0624 12.5821L15.2928 12.8157H15.3795V11.9926H15.0624V12.5821ZM8.62116 11.9946V12.8157H8.70818L8.93869 12.5821V11.9926H8.62149L8.62116 11.9946ZM16.8864 11.9946V12.8154H17.2026V11.9926H16.8868L16.8864 11.9946ZM16.2719 12.8154H16.5881V11.9926H16.2719V12.8154ZM15.6759 11.9946V12.8154H15.9924V11.9926H15.6762L15.6759 11.9946ZM8.00733 12.8154H8.32348V11.9926H8.00733V12.8154ZM7.41027 12.8154H7.72675V11.9926H7.41027V12.8154ZM6.79576 12.8154H7.11158V11.9926H6.79576V12.8154ZM14.429 12.0336L14.7459 12.2987V11.9936H14.429V12.0336ZM9.25484 11.9943V12.2994L9.57167 12.0343V11.9926H9.25518L9.25484 11.9943ZM12.0012 9.73237L12.1208 9.9778V9.97984C12.356 10.4667 12.9419 10.9311 13.5101 11.3803C13.6109 11.461 13.7161 11.5437 13.8162 11.6244H14.5133V9.61945H9.48733V11.6237H10.1845C10.2853 11.5431 10.3888 11.4607 10.4893 11.381C11.0574 10.9315 11.645 10.4657 11.8799 9.97916V9.97713L11.9995 9.73169L12.0012 9.73237ZM11.9988 15.1455L11.8275 14.2681L11.3168 14.5417L11.6192 14.0921L10.792 13.926L11.642 13.7565L11.431 13.3307L11.8319 13.5578L11.9978 12.7072L12.1702 13.5887L12.6802 13.3137L12.3778 13.763L13.205 13.9294L12.355 14.0989L12.566 14.5254L12.1648 14.2983L11.9995 15.1455H11.9988Z" fill="white"/>
</svg>
