<svg width="14" height="14" viewBox="0 0 14 14" fill="none" xmlns="http://www.w3.org/2000/svg">
<path d="M0.754517 6.0812C0.321139 5.91268 0.104444 5.82838 0.0411847 5.70696C-0.0136589 5.6017 -0.0137318 5.4763 0.0409881 5.37098C0.104109 5.24948 0.320695 5.16496 0.753883 4.9959L13.0473 0.198472C13.4383 0.0458722 13.6339 -0.0304241 13.7588 0.0113093C13.8673 0.0475611 13.9524 0.132702 13.9887 0.241203C14.0305 0.366141 13.9542 0.561661 13.8015 0.9527L9.00411 13.2461C8.83508 13.6793 8.75049 13.8959 8.629 13.959C8.52374 14.0137 8.39831 14.0137 8.29305 13.9588C8.17163 13.8956 8.08733 13.6789 7.91881 13.2455L6.00569 8.32597C5.97147 8.23804 5.95437 8.19407 5.92794 8.15702C5.9045 8.12419 5.87582 8.09543 5.84299 8.07206C5.80594 8.04564 5.76197 8.02853 5.67403 7.99432L0.754517 6.0812Z" fill="#FF783D"/>
</svg>
