<svg width="613" height="58" viewBox="0 0 613 58" fill="none" xmlns="http://www.w3.org/2000/svg">
<path d="M67.3469 41.8179V1.09669H13.6577L11.689 24.5618C11.4108 27.8302 10.9936 30.5987 10.4372 32.8458C9.88083 35.1036 9.15327 36.9529 8.24383 38.3989C7.33438 39.8504 6.20025 40.99 4.84143 41.8179H0V55.9669H76.0133V41.8179H67.3522H67.3469ZM48.5053 41.8179H24.6619V41.5169C25.55 40.56 26.2882 39.4203 26.8767 38.1194C27.4651 36.8185 27.968 35.2058 28.3746 33.2866C28.7705 31.3729 29.1235 29.0613 29.4338 26.3465L30.4075 15.1274H48.5V41.8179H48.5053Z" fill="white"/>
<path d="M142.732 13.3372C139.875 9.07962 135.857 5.79504 130.657 3.47272C125.463 1.16115 119.332 0 112.276 0C105.22 0 99.1159 1.15041 93.916 3.45122C88.7215 5.76279 84.6985 9.05811 81.8525 13.3157C79.0065 17.5948 77.5781 22.6426 77.5781 28.4753V28.5505C77.5781 34.3832 78.9904 39.4257 81.8311 43.6994C84.6664 47.9677 88.6947 51.2738 93.9053 53.5854C96.1842 54.596 98.629 55.3916 101.261 55.9614C104.642 56.7033 108.317 57.0688 112.276 57.0688C116.235 57.0688 119.921 56.7033 123.302 55.9614C125.934 55.3916 128.389 54.596 130.657 53.5854C135.863 51.2738 139.875 47.9677 142.732 43.6994C145.578 39.4257 147.001 34.3832 147.001 28.5505V28.4753C147.001 22.6426 145.578 17.6002 142.732 13.3372ZM127.86 28.5505C127.86 31.4642 127.218 33.9854 125.944 36.1142C124.671 38.243 122.874 39.888 120.557 41.0653C118.236 42.2264 115.47 42.807 112.271 42.807C109.072 42.807 106.295 42.2372 103.963 41.0868C101.63 39.9256 99.8381 38.2806 98.5862 36.1357C97.3344 33.9962 96.7139 31.4642 96.7139 28.5505V28.4753C96.7139 25.5401 97.3344 23.0082 98.5862 20.8901C99.8381 18.7721 101.625 17.1379 103.984 15.9821C106.327 14.8317 109.093 14.2511 112.271 14.2511C115.448 14.2511 118.203 14.8317 120.536 15.9821C122.868 17.1325 124.671 18.7775 125.944 20.9116C127.218 23.0404 127.86 25.5616 127.86 28.4753V28.5505Z" fill="white"/>
<path d="M208.25 1.09669L192.361 35.4369H192.094L176.195 1.09669H153.945V55.9615H170.861V23.8683H171.546L186.268 55.9615H198.182L212.925 23.8683H213.578V55.9615H230.494V1.09669H208.244H208.25Z" fill="white"/>
<path d="M285.128 1.09669V21.288H257.7V1.09669H238.891V55.9615H257.7V35.3186H285.128V55.9615H303.894V1.09669H285.128Z" fill="white"/>
<path d="M357.075 1.09669H332.633L309.367 55.9615H329.15L333.162 45.3982H356.546L360.558 55.9615H380.373L357.065 1.09669H357.075ZM337.763 33.3081L344.712 15.0199H345.012L351.961 33.3081H337.763Z" fill="white"/>
<path d="M449.816 41.8179V1.09669H396.126L394.158 24.5618C393.88 27.8302 393.462 30.5987 392.906 32.8458C392.36 35.1036 391.622 36.9529 390.713 38.3989C389.814 39.8504 388.68 40.99 387.31 41.8179H382.469V55.9669H458.482V41.8179H449.821H449.816ZM430.974 41.8179H407.131V41.5169C408.019 40.56 408.757 39.4203 409.345 38.1194C409.934 36.8185 410.437 35.2058 410.843 33.2866C411.239 31.3729 411.592 29.0613 411.903 26.3465L412.887 15.1274H430.969V41.8179H430.974Z" fill="white"/>
<path d="M525.226 13.3372C522.37 9.07962 518.352 5.79504 513.152 3.47272C507.958 1.16115 501.827 0 494.771 0C487.715 0 481.611 1.15041 476.411 3.45122C471.216 5.76279 467.193 9.05811 464.347 13.3157C461.501 17.5948 460.078 22.6426 460.078 28.4753V28.5505C460.078 34.3832 461.49 39.4257 464.326 43.6994C467.161 47.9677 471.189 51.2738 476.4 53.5854C478.679 54.596 481.118 55.3916 483.756 55.9614C487.137 56.7033 490.812 57.0688 494.771 57.0688C498.729 57.0688 502.415 56.7033 505.796 55.9614C508.428 55.3916 510.884 54.596 513.152 53.5854C518.357 51.2738 522.37 47.9677 525.226 43.6994C528.072 39.4257 529.501 34.3832 529.501 28.5505V28.4753C529.501 22.6426 528.078 17.6002 525.226 13.3372ZM510.354 28.5505C510.354 31.4642 509.712 33.9854 508.439 36.1142C507.166 38.243 505.368 39.888 503.052 41.0653C500.73 42.2264 497.964 42.807 494.765 42.807C491.566 42.807 488.79 42.2372 486.457 41.0868C484.125 39.9256 482.333 38.2806 481.081 36.1357C479.829 33.9962 479.209 31.4642 479.209 28.5505V28.4753C479.209 25.5401 479.829 23.0082 481.081 20.8901C482.333 18.7721 484.12 17.1379 486.479 15.9821C488.822 14.8317 491.588 14.2511 494.765 14.2511C497.943 14.2511 500.698 14.8317 503.031 15.9821C505.363 17.1325 507.16 18.7775 508.439 20.9116C509.712 23.0404 510.354 25.5616 510.354 28.4753V28.5505Z" fill="white"/>
<path d="M590.758 1.09669L574.869 35.4369H574.602L558.713 1.09669H536.453V55.9615H553.369V23.8683H554.054L568.776 55.9615H580.689L595.433 23.8683H596.086V55.9615H613.001V1.09669H590.752H590.758Z" fill="white"/>
</svg>
