<svg width="226" height="34" viewBox="0 0 226 34" fill="none" xmlns="http://www.w3.org/2000/svg">
<g clip-path="url(#clip0_2019_36)">
<path d="M55.468 33.2314H0V16.6256L19.0773 0C22.8764 3.31083 26.6754 6.62165 30.4731 9.93248L20.8101 18.3537C20.8058 22.3062 20.803 26.26 20.7988 30.2125H24.2657V19.6174L39.845 6.03782L55.4398 19.6272L55.4666 33.2327L55.468 33.2314Z" fill="#FF783D"/>
<path d="M59.2871 19V17.1543L60.8008 16.8125V6.98828L59.2871 6.63672V4.78125H60.8008H65.7324C67.0085 4.78125 68.1348 5.08073 69.1113 5.67969C70.0879 6.27214 70.8529 7.0957 71.4062 8.15039C71.9596 9.19857 72.2363 10.4062 72.2363 11.7734V12.0176C72.2363 13.3783 71.9629 14.5859 71.416 15.6406C70.8691 16.6888 70.1074 17.5124 69.1309 18.1113C68.1543 18.7038 67.028 19 65.752 19H59.2871ZM63.9258 16.627H65.5859C66.3477 16.627 66.9857 16.4316 67.5 16.041C68.0208 15.6504 68.4147 15.11 68.6816 14.4199C68.9551 13.7233 69.0918 12.9225 69.0918 12.0176V11.7637C69.0918 10.8522 68.9551 10.0514 68.6816 9.36133C68.4147 8.67122 68.0208 8.13411 67.5 7.75C66.9857 7.35938 66.3477 7.16406 65.5859 7.16406H63.9258V16.627ZM80.2734 19.2051C79.3034 19.2051 78.4147 19.026 77.6074 18.668C76.8066 18.3099 76.1133 17.8053 75.5273 17.1543C74.9414 16.5033 74.4889 15.7415 74.1699 14.8691C73.8574 13.9902 73.7012 13.0332 73.7012 11.998V11.7734C73.7012 10.7448 73.8574 9.79427 74.1699 8.92188C74.4889 8.04948 74.9382 7.28776 75.5176 6.63672C76.1035 5.98568 76.7969 5.48112 77.5977 5.12305C78.4049 4.75846 79.2936 4.57617 80.2637 4.57617C81.2272 4.57617 82.1126 4.75846 82.9199 5.12305C83.7272 5.48112 84.4303 5.98568 85.0293 6.63672C85.6283 7.28776 86.0905 8.04948 86.416 8.92188C86.7415 9.79427 86.9043 10.7448 86.9043 11.7734V11.998C86.9043 13.0332 86.7415 13.9902 86.416 14.8691C86.0905 15.7415 85.6283 16.5033 85.0293 17.1543C84.4368 17.8053 83.737 18.3099 82.9297 18.668C82.1224 19.026 81.237 19.2051 80.2734 19.2051ZM80.2734 16.8125C81.0352 16.8125 81.6764 16.6107 82.1973 16.207C82.7246 15.8034 83.1217 15.2435 83.3887 14.5273C83.6556 13.8047 83.7891 12.9616 83.7891 11.998V11.7539C83.7891 10.8099 83.6523 9.97982 83.3789 9.26367C83.112 8.54753 82.7148 7.98763 82.1875 7.58398C81.6667 7.18034 81.0254 6.97852 80.2637 6.97852C79.4824 6.97852 78.8379 7.18034 78.3301 7.58398C77.8223 7.98112 77.4447 8.53776 77.1973 9.25391C76.9499 9.96354 76.8262 10.7969 76.8262 11.7539V11.998C76.8262 12.9616 76.9499 13.8047 77.1973 14.5273C77.4512 15.25 77.832 15.8132 78.3398 16.2168C78.8542 16.6139 79.4987 16.8125 80.2734 16.8125ZM87.9004 19V17.1543L89.3945 16.8516V6.93945L87.9004 6.63672V4.78125H89.3945H94.1016L97.7637 14.4297H97.8223L101.387 4.78125H107.549V6.63672L106.045 6.93945V16.8516L107.549 17.1543V19H101.436V17.1543L102.998 16.8516V14.5371L103.057 7.99414L102.998 7.98438L98.8574 18.9023H96.4453L92.2266 8.0918L92.1582 8.10156L92.3633 14.166V16.8516L94.0234 17.1543V19H87.9004ZM108.369 19V17.1543L109.854 16.8516V6.93945L108.369 6.63672V4.78125H109.854H113.037L118.994 14.2832L119.053 14.2734V6.93945L117.207 6.63672V4.78125H121.836H123.33V6.63672L121.836 6.93945V19H118.779L112.695 9.64453H112.637V16.8516L114.492 17.1543V19H108.369ZM122.705 19V17.1543L123.721 17.0078L128.105 4.78125H131.396L135.771 17.0078L136.777 17.1543V19H131.719V17.1543L132.676 16.9785L132.139 15.2207H127.344L126.826 16.9785L127.783 17.1543V19H122.705ZM128.047 12.9746H131.436L129.912 8.36523L129.766 7.90625H129.707L129.551 8.4043L128.047 12.9746ZM137.568 19V17.1543L139.082 16.8125V6.98828L137.568 6.63672V4.78125H139.082H144.014C145.29 4.78125 146.416 5.08073 147.393 5.67969C148.369 6.27214 149.134 7.0957 149.688 8.15039C150.241 9.19857 150.518 10.4062 150.518 11.7734V12.0176C150.518 13.3783 150.244 14.5859 149.697 15.6406C149.15 16.6888 148.389 17.5124 147.412 18.1113C146.436 18.7038 145.309 19 144.033 19H137.568ZM142.207 16.627H143.867C144.629 16.627 145.267 16.4316 145.781 16.041C146.302 15.6504 146.696 15.11 146.963 14.4199C147.236 13.7233 147.373 12.9225 147.373 12.0176V11.7637C147.373 10.8522 147.236 10.0514 146.963 9.36133C146.696 8.67122 146.302 8.13411 145.781 7.75C145.267 7.35938 144.629 7.16406 143.867 7.16406H142.207V16.627ZM158.555 19.2051C157.585 19.2051 156.696 19.026 155.889 18.668C155.088 18.3099 154.395 17.8053 153.809 17.1543C153.223 16.5033 152.77 15.7415 152.451 14.8691C152.139 13.9902 151.982 13.0332 151.982 11.998V11.7734C151.982 10.7448 152.139 9.79427 152.451 8.92188C152.77 8.04948 153.219 7.28776 153.799 6.63672C154.385 5.98568 155.078 5.48112 155.879 5.12305C156.686 4.75846 157.575 4.57617 158.545 4.57617C159.508 4.57617 160.394 4.75846 161.201 5.12305C162.008 5.48112 162.712 5.98568 163.311 6.63672C163.91 7.28776 164.372 8.04948 164.697 8.92188C165.023 9.79427 165.186 10.7448 165.186 11.7734V11.998C165.186 13.0332 165.023 13.9902 164.697 14.8691C164.372 15.7415 163.91 16.5033 163.311 17.1543C162.718 17.8053 162.018 18.3099 161.211 18.668C160.404 19.026 159.518 19.2051 158.555 19.2051ZM158.555 16.8125C159.316 16.8125 159.958 16.6107 160.479 16.207C161.006 15.8034 161.403 15.2435 161.67 14.5273C161.937 13.8047 162.07 12.9616 162.07 11.998V11.7539C162.07 10.8099 161.934 9.97982 161.66 9.26367C161.393 8.54753 160.996 7.98763 160.469 7.58398C159.948 7.18034 159.307 6.97852 158.545 6.97852C157.764 6.97852 157.119 7.18034 156.611 7.58398C156.104 7.98112 155.726 8.53776 155.479 9.25391C155.231 9.96354 155.107 10.7969 155.107 11.7539V11.998C155.107 12.9616 155.231 13.8047 155.479 14.5273C155.732 15.25 156.113 15.8132 156.621 16.2168C157.135 16.6139 157.78 16.8125 158.555 16.8125ZM166.182 19V17.1543L167.676 16.8516V6.93945L166.182 6.63672V4.78125H167.676H172.383L176.045 14.4297H176.104L179.668 4.78125H185.83V6.63672L184.326 6.93945V16.8516L185.83 17.1543V19H179.717V17.1543L181.279 16.8516V14.5371L181.338 7.99414L181.279 7.98438L177.139 18.9023H174.727L170.508 8.0918L170.439 8.10156L170.645 14.166V16.8516L172.305 17.1543V19H166.182Z" fill="#44000C"/>
</g>
<path d="M58.875 31V30.248L59.6514 30.1016V24.7939L58.875 24.6475V23.8906H61.6582V24.6475L60.8818 24.7939V27.0107H63.9922V24.7939L63.2158 24.6475V23.8906H63.9922H65.2178H65.9941V24.6475L65.2178 24.7939V30.1016L65.9941 30.248V31H63.2158V30.248L63.9922 30.1016V27.9678H60.8818V30.1016L61.6582 30.248V31H58.875ZM69.749 31.1025C69.277 31.1025 68.8506 31.0146 68.4697 30.8389C68.0889 30.6598 67.7617 30.4092 67.4883 30.0869C67.2181 29.7646 67.0098 29.3838 66.8633 28.9443C66.7168 28.5049 66.6436 28.0231 66.6436 27.499V27.3916C66.6436 26.8708 66.7168 26.3906 66.8633 25.9512C67.0098 25.5117 67.2181 25.1309 67.4883 24.8086C67.7617 24.4831 68.0889 24.2324 68.4697 24.0566C68.8506 23.8776 69.2754 23.7881 69.7441 23.7881C70.2292 23.7881 70.6637 23.8776 71.0479 24.0566C71.432 24.2324 71.7591 24.4831 72.0293 24.8086C72.2995 25.1309 72.5062 25.5117 72.6494 25.9512C72.7926 26.3906 72.8643 26.8708 72.8643 27.3916V27.499C72.8643 28.0231 72.7926 28.5049 72.6494 28.9443C72.5062 29.3838 72.2995 29.7646 72.0293 30.0869C71.7591 30.4092 71.432 30.6598 71.0479 30.8389C70.6637 31.0146 70.2308 31.1025 69.749 31.1025ZM69.749 30.126C70.1787 30.126 70.5319 30.0169 70.8086 29.7988C71.0885 29.5775 71.2952 29.2699 71.4287 28.876C71.5654 28.4821 71.6338 28.0231 71.6338 27.499V27.3818C71.6338 26.8643 71.5654 26.4102 71.4287 26.0195C71.292 25.6289 71.0837 25.3229 70.8037 25.1016C70.527 24.8802 70.1738 24.7695 69.7441 24.7695C69.334 24.7695 68.9906 24.8802 68.7139 25.1016C68.4372 25.3229 68.2288 25.6289 68.0889 26.0195C67.9489 26.4102 67.8789 26.8643 67.8789 27.3818V27.499C67.8789 28.0199 67.9489 28.4788 68.0889 28.876C68.2288 29.2699 68.4372 29.5775 68.7139 29.7988C68.9938 30.0169 69.3389 30.126 69.749 30.126ZM76.9268 31.1025C76.3962 31.1025 75.9258 31.0065 75.5156 30.8145C75.1055 30.6191 74.7848 30.3392 74.5537 29.9746C74.3258 29.61 74.2119 29.1689 74.2119 28.6514V24.7939L73.4355 24.6475V23.8906H76.2139V24.6475L75.4375 24.7939V28.6514C75.4375 28.9801 75.4993 29.2568 75.623 29.4814C75.7467 29.7028 75.9209 29.8688 76.1455 29.9795C76.3701 30.0902 76.6322 30.1455 76.9316 30.1455C77.2409 30.1455 77.5078 30.0902 77.7324 29.9795C77.9603 29.8688 78.1361 29.7028 78.2598 29.4814C78.3867 29.2601 78.4502 28.9834 78.4502 28.6514V24.7939L77.6738 24.6475V23.8906H80.4521V24.6475L79.6807 24.7939V28.6514C79.6807 29.1755 79.5651 29.6198 79.334 29.9844C79.1061 30.349 78.7855 30.6273 78.3721 30.8193C77.9587 31.0081 77.4769 31.1025 76.9268 31.1025ZM83.792 31.1025C83.307 31.1025 82.8561 31.0423 82.4395 30.9219C82.0228 30.8014 81.6175 30.6012 81.2236 30.3213V28.6855H82.1758L82.332 29.7451C82.5046 29.8688 82.7161 29.9681 82.9668 30.043C83.2207 30.1178 83.4958 30.1553 83.792 30.1553C84.0817 30.1553 84.3242 30.1146 84.5195 30.0332C84.7181 29.9486 84.8695 29.8314 84.9736 29.6816C85.0778 29.5319 85.1299 29.3545 85.1299 29.1494C85.1299 28.9606 85.0843 28.793 84.9932 28.6465C84.902 28.5 84.7507 28.3698 84.5391 28.2559C84.3275 28.1387 84.041 28.0312 83.6797 27.9336C83.1491 27.7904 82.7048 27.6211 82.3467 27.4258C81.9919 27.2305 81.7233 26.9961 81.541 26.7227C81.362 26.4492 81.2725 26.127 81.2725 25.7559C81.2725 25.375 81.375 25.0381 81.5801 24.7451C81.7884 24.4521 82.0765 24.221 82.4443 24.0518C82.8122 23.8825 83.237 23.7962 83.7188 23.793C84.2461 23.7865 84.7116 23.8548 85.1152 23.998C85.5221 24.1413 85.8656 24.3285 86.1455 24.5596V26.0879H85.2129L85.0371 25.0918C84.9036 24.9974 84.7295 24.9176 84.5146 24.8525C84.3031 24.7842 84.0524 24.75 83.7627 24.75C83.5153 24.75 83.2972 24.7907 83.1084 24.8721C82.9196 24.9535 82.7715 25.069 82.6641 25.2188C82.5566 25.3652 82.5029 25.541 82.5029 25.7461C82.5029 25.9251 82.5501 26.0814 82.6445 26.2148C82.7389 26.3483 82.8968 26.4704 83.1182 26.5811C83.3395 26.6885 83.639 26.7975 84.0166 26.9082C84.7881 27.1133 85.3724 27.3965 85.7695 27.7578C86.1667 28.1191 86.3652 28.5798 86.3652 29.1396C86.3652 29.5335 86.2578 29.8786 86.043 30.1748C85.8314 30.4678 85.5319 30.6956 85.1445 30.8584C84.7604 31.0212 84.3096 31.1025 83.792 31.1025ZM87.0391 31V30.248L87.8154 30.1016V24.7939L87.0391 24.6475V23.8906H92.4541V25.7217H91.4971L91.4141 24.8379H89.0459V26.8496H91.541V27.8018H89.0459V30.0625H91.5459L91.6289 29.1592H92.5762V31H87.0391ZM95.8965 31V30.248L96.6729 30.1016V24.7939L95.8965 24.6475V23.8906H101.312V25.7217H100.354L100.271 24.8379H97.9033V26.8496H100.398V27.8018H97.9033V30.0625H100.403L100.486 29.1592H101.434V31H95.8965ZM102.225 31V30.248L102.845 30.1309L104.939 27.4404L102.981 24.7646L102.386 24.6475V23.8906H104.964V24.6475L104.29 24.7109L105.662 26.625L106.995 24.7109L106.321 24.6475V23.8906H108.885V24.6475L108.245 24.7646L106.38 27.3672L108.465 30.1309L109.119 30.248V31H106.487V30.248L107.137 30.1846L105.662 28.168L104.173 30.1846L104.793 30.248V31H102.225ZM109.705 31V30.248L110.481 30.1016V24.7939L109.705 24.6475V23.8906H112.488V24.6475L111.712 24.7939V27.0107H114.822V24.7939L114.046 24.6475V23.8906H114.822H116.048H116.824V24.6475L116.048 24.7939V30.1016L116.824 30.248V31H114.046V30.248L114.822 30.1016V27.9678H111.712V30.1016L112.488 30.248V31H109.705ZM117.469 31V30.248L118.245 30.1016V24.7939L117.469 24.6475V23.8906H120.247V24.6475L119.476 24.7939V30.1016L120.247 30.248V31H117.469ZM120.896 31V30.248L121.673 30.1016V24.7939L120.896 24.6475V23.8906H121.673H124.017C124.814 23.8906 125.436 24.0534 125.882 24.3789C126.331 24.7012 126.556 25.1846 126.556 25.8291C126.556 26.1514 126.463 26.4411 126.277 26.6982C126.092 26.9521 125.835 27.141 125.506 27.2646C125.792 27.3265 126.033 27.4388 126.229 27.6016C126.424 27.7643 126.572 27.9629 126.673 28.1973C126.777 28.4284 126.829 28.6823 126.829 28.959C126.829 29.6263 126.609 30.1341 126.17 30.4824C125.734 30.8275 125.125 31 124.344 31H120.896ZM122.903 30.0527H124.344C124.747 30.0527 125.057 29.96 125.271 29.7744C125.49 29.5856 125.599 29.3138 125.599 28.959C125.599 28.5846 125.506 28.2933 125.32 28.085C125.138 27.8766 124.853 27.7725 124.466 27.7725H122.903V30.0527ZM122.903 26.8887H124.153C124.518 26.8887 124.804 26.8008 125.013 26.625C125.221 26.4492 125.325 26.2035 125.325 25.8877C125.325 25.5329 125.215 25.2708 124.993 25.1016C124.772 24.929 124.446 24.8428 124.017 24.8428H122.903V26.8887ZM127.42 31V30.248L128.196 30.1016V24.7939L127.42 24.6475V23.8906H130.198V24.6475L129.427 24.7939V30.1016L130.198 30.248V31H127.42ZM132.537 31V30.248L133.313 30.1016V24.833H131.883L131.775 25.7412H130.853V23.8906H137.01V25.7412H136.082L135.975 24.833H134.544V30.1016L135.32 30.248V31H132.537ZM137.664 31V30.248L138.44 30.1016V24.7939L137.664 24.6475V23.8906H140.442V24.6475L139.671 24.7939V30.1016L140.442 30.248V31H137.664ZM144.202 31.1025C143.73 31.1025 143.304 31.0146 142.923 30.8389C142.542 30.6598 142.215 30.4092 141.941 30.0869C141.671 29.7646 141.463 29.3838 141.316 28.9443C141.17 28.5049 141.097 28.0231 141.097 27.499V27.3916C141.097 26.8708 141.17 26.3906 141.316 25.9512C141.463 25.5117 141.671 25.1309 141.941 24.8086C142.215 24.4831 142.542 24.2324 142.923 24.0566C143.304 23.8776 143.729 23.7881 144.197 23.7881C144.682 23.7881 145.117 23.8776 145.501 24.0566C145.885 24.2324 146.212 24.4831 146.482 24.8086C146.753 25.1309 146.959 25.5117 147.103 25.9512C147.246 26.3906 147.317 26.8708 147.317 27.3916V27.499C147.317 28.0231 147.246 28.5049 147.103 28.9443C146.959 29.3838 146.753 29.7646 146.482 30.0869C146.212 30.4092 145.885 30.6598 145.501 30.8389C145.117 31.0146 144.684 31.1025 144.202 31.1025ZM144.202 30.126C144.632 30.126 144.985 30.0169 145.262 29.7988C145.542 29.5775 145.748 29.2699 145.882 28.876C146.019 28.4821 146.087 28.0231 146.087 27.499V27.3818C146.087 26.8643 146.019 26.4102 145.882 26.0195C145.745 25.6289 145.537 25.3229 145.257 25.1016C144.98 24.8802 144.627 24.7695 144.197 24.7695C143.787 24.7695 143.444 24.8802 143.167 25.1016C142.89 25.3229 142.682 25.6289 142.542 26.0195C142.402 26.4102 142.332 26.8643 142.332 27.3818V27.499C142.332 28.0199 142.402 28.4788 142.542 28.876C142.682 29.2699 142.89 29.5775 143.167 29.7988C143.447 30.0169 143.792 30.126 144.202 30.126ZM147.962 31V30.248L148.738 30.1016V24.7939L147.962 24.6475V23.8906H148.738H149.983L153.245 29.0811L153.274 29.0713V24.7939L152.376 24.6475V23.8906H154.383H155.159V24.6475L154.383 24.7939V31H153.216L149.876 25.8291L149.847 25.834V30.1016L150.745 30.248V31H147.962Z" fill="#FF783D"/>
<defs>
<clipPath id="clip0_2019_36">
<rect width="226" height="34" fill="white"/>
</clipPath>
</defs>
</svg>
