<svg width="24" height="24" viewBox="0 0 24 24" fill="none" xmlns="http://www.w3.org/2000/svg">
<g clip-path="url(#clip0_1065_5379)">
<path d="M6 0.25V1.75H1.75V6H0.25V0.25H6Z" fill="black"/>
<path d="M18 23.75V22.25H22.25V18H23.75V23.75H18Z" fill="black"/>
<path d="M23.75 6H22.25V1.75H18V0.25H23.75V6Z" fill="black"/>
<path d="M0.25 18H1.75V22.25H6V23.75H0.25V18Z" fill="black"/>
<path d="M5.75 15.3545L11.25 17.8379V12.2578L5.75 9.77441V15.3545ZM12.75 12.2578V17.8379L18.25 15.3545V9.77441L12.75 12.2578ZM6.72168 8.56738L12 10.9512L17.2773 8.56738L12 5.84277L6.72168 8.56738ZM19.75 15.8389C19.7499 16.1336 19.5772 16.4012 19.3086 16.5225L12.3086 19.6836C12.1124 19.7722 11.8876 19.7722 11.6914 19.6836L4.69141 16.5225C4.42281 16.4012 4.25006 16.1336 4.25 15.8389V8.61328C4.25 8.33266 4.40689 8.07499 4.65625 7.94629L11.6562 4.33398L11.7383 4.29688C11.935 4.22365 12.1548 4.23647 12.3438 4.33398L19.3438 7.94629C19.5931 8.07499 19.75 8.33266 19.75 8.61328V15.8389Z" fill="black"/>
</g>
<defs>
<clipPath id="clip0_1065_5379">
<rect width="24" height="24" fill="white"/>
</clipPath>
</defs>
</svg>
