<svg width="24" height="24" viewBox="0 0 24 24" fill="none" xmlns="http://www.w3.org/2000/svg">
<g clip-path="url(#clip0_1075_1152)">
<path d="M1 6V1H6" stroke="white" stroke-width="1.5"/>
<path d="M23 18V23H18" stroke="white" stroke-width="1.5"/>
<path d="M18 1H23V6" stroke="white" stroke-width="1.5"/>
<path d="M6 23H1V18" stroke="white" stroke-width="1.5"/>
<path d="M12 5L12.344 4.33353C12.1282 4.22216 11.8718 4.22216 11.656 4.33353L12 5ZM19 8.6129H19.75C19.75 8.33228 19.5933 8.07514 19.344 7.94644L19 8.6129ZM19 15.8387L19.3087 16.5222C19.5773 16.4009 19.75 16.1335 19.75 15.8387H19ZM12 19L11.6913 19.6835C11.8876 19.7722 12.1124 19.7722 12.3087 19.6835L12 19ZM5 15.8387H4.25C4.25 16.1335 4.42267 16.4009 4.69131 16.5222L5 15.8387ZM5 8.6129L4.65602 7.94644C4.40665 8.07514 4.25 8.33228 4.25 8.6129H5ZM12 5L11.656 5.66647L18.656 9.27937L19 8.6129L19.344 7.94644L12.344 4.33353L12 5ZM19 8.6129H18.25V15.8387H19H19.75V8.6129H19ZM19 15.8387L18.6913 15.1552L11.6913 18.3165L12 19L12.3087 19.6835L19.3087 16.5222L19 15.8387ZM12 19L12.3087 18.3165L5.30869 15.1552L5 15.8387L4.69131 16.5222L11.6913 19.6835L12 19ZM5 15.8387H5.75V8.6129H5H4.25V15.8387H5ZM5 8.6129L5.34398 9.27937L12.344 5.66647L12 5L11.656 4.33353L4.65602 7.94644L5 8.6129ZM19 8.6129L18.6913 7.92938L11.6913 11.0907L12 11.7742L12.3087 12.4577L19.3087 9.29643L19 8.6129ZM12 11.7742H11.25V19H12H12.75V11.7742H12ZM12 11.7742L12.3087 11.0907L5.30869 7.92938L5 8.6129L4.69131 9.29643L11.6913 12.4577L12 11.7742Z" fill="white"/>
</g>
<defs>
<clipPath id="clip0_1075_1152">
<rect width="24" height="24" fill="white"/>
</clipPath>
</defs>
</svg>
