<svg width="798" height="94" viewBox="0 0 798 94" fill="none" xmlns="http://www.w3.org/2000/svg">
<path d="M0 92.3125V82.0625L9.875 80V13.6875L0 11.625V1.3125H9.875H39.0625C47.1875 1.3125 54.3125 3.22917 60.4375 7.0625C66.6042 10.8958 71.4167 16.1667 74.875 22.875C78.3333 29.5833 80.0625 37.2917 80.0625 46V47.6875C80.0625 56.2708 78.3542 63.9375 74.9375 70.6875C71.5625 77.3958 66.8125 82.6875 60.6875 86.5625C54.6042 90.3958 47.5 92.3125 39.375 92.3125H0ZM26.875 79.25H38.5C43.7083 79.25 48.125 77.875 51.75 75.125C55.375 72.375 58.1458 68.625 60.0625 63.875C62.0208 59.125 63 53.7292 63 47.6875V45.875C63 39.75 62.0208 34.3333 60.0625 29.625C58.1458 24.875 55.375 21.1667 51.75 18.5C48.125 15.7917 43.7083 14.4375 38.5 14.4375H26.875V79.25ZM130.875 93.625C124.792 93.625 119.271 92.5 114.312 90.25C109.354 87.9583 105.083 84.75 101.5 80.625C97.9583 76.4583 95.2292 71.5833 93.3125 66C91.3958 60.375 90.4375 54.2083 90.4375 47.5V46.125C90.4375 39.4583 91.3958 33.3333 93.3125 27.75C95.2292 22.125 97.9583 17.25 101.5 13.125C105.083 8.95833 109.333 5.72917 114.25 3.4375C119.208 1.14583 124.729 0 130.812 0C137.021 0 142.604 1.14583 147.562 3.4375C152.562 5.72917 156.854 8.95833 160.438 13.125C164.021 17.25 166.75 22.125 168.625 27.75C170.542 33.3333 171.5 39.4583 171.5 46.125V47.5C171.5 54.2083 170.542 60.375 168.625 66C166.75 71.5833 164.021 76.4583 160.438 80.625C156.896 84.75 152.625 87.9583 147.625 90.25C142.625 92.5 137.042 93.625 130.875 93.625ZM130.875 80.25C136.208 80.25 140.625 78.8958 144.125 76.1875C147.625 73.4375 150.229 69.6042 151.938 64.6875C153.688 59.7708 154.562 54.0417 154.562 47.5V46C154.562 39.5417 153.688 33.875 151.938 29C150.188 24.125 147.542 20.3125 144 17.5625C140.5 14.8125 136.104 13.4375 130.812 13.4375C125.646 13.4375 121.333 14.8125 117.875 17.5625C114.417 20.2708 111.812 24.0625 110.062 28.9375C108.354 33.8125 107.5 39.5 107.5 46V47.5C107.5 54 108.354 59.7292 110.062 64.6875C111.812 69.6042 114.417 73.4375 117.875 76.1875C121.375 78.8958 125.708 80.25 130.875 80.25ZM179.438 92.3125V82.0625L189.188 80.1875V13.5L179.438 11.625V1.3125H189.188H214L239.75 65.9375H240.125L265.062 1.3125H299.812V11.625L290 13.5V80.1875L299.812 82.0625V92.3125H263.188V82.0625L273.5 80.1875V60.875L273.75 20.4375L273.438 20.375L245.688 90.625H233.125L204.688 20.8125L204.312 20.875L205.312 59.375V80.1875L216.062 82.0625V92.3125H179.438ZM307.312 92.3125V82.0625L317.062 80.1875V13.5L307.312 11.625V1.3125H317.062H334.312L375 66.0625L375.375 66V13.5L363.812 11.625V1.3125H390.625H400.438V11.625L390.625 13.5V92.3125H374.312L332.75 28L332.375 28.0625V80.1875L343.938 82.0625V92.3125H307.312ZM401.75 92.3125V82.0625L408.312 81.125L437.875 1.3125H454.812L484.125 81.125L490.625 82.0625V92.3125H460.688V82.0625L467.125 80.875L462.688 67.5H429.75L425.312 80.875L431.688 82.0625V92.3125H401.75ZM433.938 54.6875H458.5L447.312 22.3125L446.438 19.6875H446.062L445.125 22.4375L433.938 54.6875ZM497.375 92.3125V82.0625L507.25 80V13.6875L497.375 11.625V1.3125H507.25H536.438C544.562 1.3125 551.688 3.22917 557.812 7.0625C563.979 10.8958 568.792 16.1667 572.25 22.875C575.708 29.5833 577.438 37.2917 577.438 46V47.6875C577.438 56.2708 575.729 63.9375 572.312 70.6875C568.938 77.3958 564.188 82.6875 558.062 86.5625C551.979 90.3958 544.875 92.3125 536.75 92.3125H497.375ZM524.25 79.25H535.875C541.083 79.25 545.5 77.875 549.125 75.125C552.75 72.375 555.521 68.625 557.438 63.875C559.396 59.125 560.375 53.7292 560.375 47.6875V45.875C560.375 39.75 559.396 34.3333 557.438 29.625C555.521 24.875 552.75 21.1667 549.125 18.5C545.5 15.7917 541.083 14.4375 535.875 14.4375H524.25V79.25ZM628.25 93.625C622.167 93.625 616.646 92.5 611.688 90.25C606.729 87.9583 602.458 84.75 598.875 80.625C595.333 76.4583 592.604 71.5833 590.688 66C588.771 60.375 587.812 54.2083 587.812 47.5V46.125C587.812 39.4583 588.771 33.3333 590.688 27.75C592.604 22.125 595.333 17.25 598.875 13.125C602.458 8.95833 606.708 5.72917 611.625 3.4375C616.583 1.14583 622.104 0 628.188 0C634.396 0 639.979 1.14583 644.938 3.4375C649.938 5.72917 654.229 8.95833 657.812 13.125C661.396 17.25 664.125 22.125 666 27.75C667.917 33.3333 668.875 39.4583 668.875 46.125V47.5C668.875 54.2083 667.917 60.375 666 66C664.125 71.5833 661.396 76.4583 657.812 80.625C654.271 84.75 650 87.9583 645 90.25C640 92.5 634.417 93.625 628.25 93.625ZM628.25 80.25C633.583 80.25 638 78.8958 641.5 76.1875C645 73.4375 647.604 69.6042 649.312 64.6875C651.062 59.7708 651.938 54.0417 651.938 47.5V46C651.938 39.5417 651.062 33.875 649.312 29C647.562 24.125 644.917 20.3125 641.375 17.5625C637.875 14.8125 633.479 13.4375 628.188 13.4375C623.021 13.4375 618.708 14.8125 615.25 17.5625C611.792 20.2708 609.188 24.0625 607.438 28.9375C605.729 33.8125 604.875 39.5 604.875 46V47.5C604.875 54 605.729 59.7292 607.438 64.6875C609.188 69.6042 611.792 73.4375 615.25 76.1875C618.75 78.8958 623.083 80.25 628.25 80.25ZM676.812 92.3125V82.0625L686.562 80.1875V13.5L676.812 11.625V1.3125H686.562H711.375L737.125 65.9375H737.5L762.438 1.3125H797.188V11.625L787.375 13.5V80.1875L797.188 82.0625V92.3125H760.562V82.0625L770.875 80.1875V60.875L771.125 20.4375L770.812 20.375L743.062 90.625H730.5L702.062 20.8125L701.688 20.875L702.688 59.375V80.1875L713.438 82.0625V92.3125H676.812Z" fill="white"/>
</svg>
