<svg width="1880" height="166" viewBox="0 0 1880 166" fill="none" xmlns="http://www.w3.org/2000/svg">
<path d="M206.555 121.341V3.18799H41.8955L35.8541 71.2706C35.0004 80.7603 33.7199 88.7828 32.0126 95.307C30.3053 101.862 28.0726 107.232 25.2817 111.415C22.4909 115.629 19.0106 118.938 14.8407 121.341H0V162.391H233.117V121.341H206.555ZM148.768 121.341H75.6482V120.467C78.3734 117.689 80.6389 114.38 82.4447 110.603C84.2506 106.826 85.7937 102.143 87.0414 96.5869C88.2562 91.0304 89.3397 84.319 90.2919 76.4525L93.2798 43.8939H148.768V121.341Z" fill="#EFECEA"/>
<path d="M437.771 38.708C429.005 26.3464 416.692 16.8255 400.735 10.0828C384.811 3.37134 365.998 0 344.36 0C322.723 0 304.008 3.34011 288.051 10.0204C272.127 16.7319 259.781 26.284 251.048 38.6456C242.314 51.0697 237.947 65.7101 237.947 82.6293V82.8478C237.947 99.767 242.281 114.407 250.982 126.8C259.683 139.193 272.028 148.776 288.018 155.488C295.012 158.422 302.498 160.732 310.575 162.387C320.95 164.541 332.212 165.602 344.36 165.602C356.509 165.602 367.803 164.541 378.179 162.387C386.256 160.732 393.775 158.422 400.735 155.488C416.692 148.776 429.005 139.193 437.771 126.8C446.505 114.407 450.872 99.767 450.872 82.8478V82.6293C450.872 65.7101 446.505 51.0697 437.771 38.708ZM392.166 82.8478C392.166 91.3074 390.196 98.612 386.289 104.793C382.382 110.974 376.865 115.75 369.773 119.152C362.649 122.524 354.178 124.209 344.36 124.209C334.543 124.209 326.039 122.555 318.882 119.215C311.724 115.843 306.241 111.067 302.399 104.855C298.558 98.6432 296.653 91.3074 296.653 82.8478V82.6293C296.653 74.1073 298.558 66.7715 302.399 60.6219C306.241 54.4723 311.724 49.7274 318.947 46.3873C326.138 43.0472 334.609 41.3614 344.36 41.3614C354.112 41.3614 362.55 43.0472 369.708 46.3873C376.865 49.7274 382.382 54.5035 386.289 60.6843C390.196 66.8651 392.166 74.1697 392.166 82.6293V82.8478Z" fill="#EFECEA"/>
<path d="M638.756 3.18799L590.031 102.83H589.21L540.452 3.18799H472.225V162.391H524.101V69.2727H526.203L571.349 162.391H607.892L653.104 69.2727H655.107V162.391H706.984V3.18799H638.756Z" fill="#EFECEA"/>
<path d="M874.403 3.18799V61.7808H790.284V3.18799H732.596V162.391H790.284V102.487H874.403V162.391H931.96V3.18799H874.403Z" fill="#EFECEA"/>
<path d="M1095.14 3.18799H1020.18L948.836 162.391H1009.51L1021.82 131.736H1093.53L1105.85 162.391H1166.62L1095.14 3.18799ZM1035.91 96.6494L1057.22 43.5818H1058.14L1079.45 96.6494H1035.91Z" fill="#EFECEA"/>
<path d="M1379.57 121.341V3.18799H1214.91L1208.87 71.2706C1208.02 80.7603 1206.74 88.7828 1205.03 95.307C1203.35 101.862 1201.09 107.232 1198.3 111.415C1195.54 115.629 1192.06 118.938 1187.86 121.341H1173.02V162.391H1406.13V121.341H1379.57ZM1321.78 121.341H1248.66V120.467C1251.39 117.689 1253.65 114.38 1255.46 110.603C1257.27 106.826 1258.81 102.143 1260.06 96.5869C1261.27 91.0304 1262.36 84.319 1263.31 76.4525L1266.33 43.8939H1321.78V121.341Z" fill="#EFECEA"/>
<path d="M1610.79 38.708C1602.02 26.3464 1589.71 16.8255 1573.75 10.0828C1557.82 3.37134 1539.01 0 1517.37 0C1495.74 0 1477.02 3.34011 1461.06 10.0204C1445.14 16.7319 1432.8 26.284 1424.06 38.6456C1415.33 51.0697 1410.96 65.7101 1410.96 82.6293V82.8478C1410.96 99.767 1415.29 114.407 1424 126.8C1432.7 139.193 1445.04 148.776 1461.03 155.488C1468.03 158.422 1475.51 160.732 1483.59 162.387C1493.96 164.541 1505.23 165.602 1517.37 165.602C1529.52 165.602 1540.82 164.541 1551.19 162.387C1559.27 160.732 1566.79 158.422 1573.75 155.488C1589.71 148.776 1602.02 139.193 1610.79 126.8C1619.52 114.407 1623.89 99.767 1623.89 82.8478V82.6293C1623.89 65.7101 1619.52 51.0697 1610.79 38.708ZM1565.18 82.8478C1565.18 91.3074 1563.21 98.612 1559.3 104.793C1555.4 110.974 1549.88 115.75 1542.79 119.152C1535.66 122.524 1527.19 124.209 1517.37 124.209C1507.56 124.209 1499.05 122.555 1491.9 119.215C1484.74 115.843 1479.25 111.067 1475.41 104.855C1471.57 98.6432 1469.67 91.3074 1469.67 82.8478V82.6293C1469.67 74.1073 1471.57 66.7715 1475.41 60.6219C1479.25 54.4723 1484.74 49.7274 1491.96 46.3873C1499.15 43.0472 1507.62 41.3614 1517.37 41.3614C1527.13 41.3614 1535.56 43.0472 1542.72 46.3873C1549.88 49.7274 1555.4 54.5035 1559.3 60.6843C1563.21 66.8651 1565.18 74.1697 1565.18 82.6293V82.8478Z" fill="#EFECEA"/>
<path d="M1811.77 3.18799L1763.05 102.83H1762.23L1713.5 3.18799H1645.24V162.391H1697.12V69.2727H1699.22L1744.36 162.391H1780.91L1826.12 69.2727H1828.12V162.391H1880V3.18799H1811.77Z" fill="#EFECEA"/>
</svg>
