<svg width="1837" height="213" viewBox="0 0 1837 213" fill="none" xmlns="http://www.w3.org/2000/svg">
<path d="M78 75.5006V104H57.2712V83.2724H41.7301V104H21.0026L21 75.5173L49.5083 47L78 75.5006Z" fill="#F55404"/>
<path d="M863 86.5006V115H842.271V94.2724H826.73V115H806.003L806 86.5173L834.508 58L863 86.5006Z" fill="#F55404"/>
<path d="M525 86.5006V115H504.271V94.2724H488.73V115H468.003L468 86.5173L496.508 58L525 86.5006Z" fill="#F55404"/>
<path d="M1101 75.5006V104H1080.27V83.2724H1064.73V104H1044L1044 75.5173L1072.51 47L1101 75.5006Z" fill="#F55404"/>
<path d="M1413 165.001V188H1396.27V171.272H1383.73V188H1367L1367 165.014L1390.01 142L1413 165.001Z" fill="#F55404"/>
<path d="M1335 26.0006V52H1316.09V33.0906H1301.91V52H1283L1283 26.0158L1309.01 0L1335 26.0006Z" fill="#F55404"/>
<path d="M1604 47.5005V70H1587.64V53.6361H1575.37V70H1559L1559 47.5136L1581.51 25L1604 47.5005Z" fill="#F55404"/>
<path d="M1591 165.001V191H1572.09V172.091H1557.91V191H1539L1539 165.016L1565.01 139L1591 165.001Z" fill="#F55404"/>
<path d="M1369 108.5V128H1354.82V113.818H1344.18V128H1330L1330 108.512L1349.51 89L1369 108.5Z" fill="#F55404"/>
<path d="M312 29.0005V53H294.544V35.5452H281.457V53H264.002L264 29.0145L288.007 5L312 29.0005Z" fill="#F55404"/>
<path d="M162.278 114V97.2731H149.735V114H133V68C148.329 72.1817 163.658 76.3634 178.987 80.5452C178.991 91.6968 178.995 102.848 179 114H162.278Z" fill="#F55404"/>
<path d="M737.824 104V86.1822H724.191V104H706V55C722.662 59.4544 739.324 63.9089 755.985 68.3633C755.99 80.2422 755.994 92.1211 756 104H737.824Z" fill="#F55404"/>
<path d="M943.824 138V120.182H930.191V138H912V89C928.662 93.4544 945.324 97.9089 961.985 102.363C961.99 114.242 961.994 126.121 962 138H943.824Z" fill="#F55404"/>
<path d="M354.823 48V33.8185H344.189V48H330V9C342.996 12.5454 355.992 16.0908 368.989 19.6361C368.992 29.0907 368.996 38.5454 369 48H354.823Z" fill="#F55404"/>
<path d="M976.005 213V197H964.008V213H948V169C962.662 173 977.325 177 991.987 181C991.991 191.666 991.995 202.333 992 213H976.005Z" fill="#F55404"/>
<path d="M1473.01 175V159H1461.01V175H1445V131C1459.66 135 1474.32 139 1488.99 143C1488.99 153.666 1489 164.333 1489 175H1473.01Z" fill="#F55404"/>
<path d="M1669.01 210V194H1657.01V210H1641V166C1655.66 170 1670.32 174 1684.99 178C1684.99 188.666 1685 199.333 1685 210H1669.01Z" fill="#F55404"/>
<path d="M237 27V70H221.728V54.364H210V70H194V38.727L215.5 27V38.727L237 27Z" fill="#F55404"/>
<path d="M806 7V52H790.017V35.6367H777.744V52H761V19.2725L783.5 7V19.2725L806 7Z" fill="#F55404"/>
<path d="M1305 89V139H1287.24V120.819H1273.6V139H1255V102.636L1280 89V102.636L1305 89Z" fill="#F55404"/>
<path d="M619 96V141H603.017V124.637H590.744V141H574V108.272L596.5 96V108.272L619 96Z" fill="#F55404"/>
<path d="M902 141V191H884.242V172.819H870.604V191H852V154.636L877 141V154.636L902 141Z" fill="#F55404"/>
<path d="M1837 122V172H1819.24V153.819H1805.6V172H1787V135.636L1812 122V135.636L1837 122Z" fill="#F55404"/>
<path d="M1500 2V52H1482.24V33.8186H1468.6V52H1450V15.6361L1475 2V15.6361L1500 2Z" fill="#F55404"/>
<path d="M1736 5V48H1720.73V32.364H1709V48H1693V16.727L1714.5 5V16.727L1736 5Z" fill="#F55404"/>
<path d="M1647 91V139H1629.95V121.546H1616.86V139H1599V104.091L1623 91V104.091L1647 91Z" fill="#F55404"/>
<path d="M222 141V190H204.182V172.182H190.818V190H173V154.363L190.819 141L208.637 154.363V141H222Z" fill="#F55404"/>
<path d="M1068 141V185H1052V169H1040V185H1024V153L1040 141L1056 153V141H1068Z" fill="#F55404"/>
<path d="M418 55V104H400.182V86.1822H386.818V104H369V68.3633L386.819 55L404.637 68.3633V55H418Z" fill="#F55404"/>
<path d="M36.2792 185V164.273H20.7374V185H0V143.545C8.63408 141.818 17.2682 140.091 25.9022 138.363C25.9022 134.909 25.9022 131.455 25.901 128H56.9834L57 185H36.2792Z" fill="#F55404"/>
<path d="M1223.1 191V172.091H1208.92V191H1190V153.182C1197.88 151.606 1205.75 150.031 1213.63 148.454C1213.63 145.303 1213.63 142.152 1213.63 139H1241.98L1242 191H1223.1Z" fill="#F55404"/>
<path d="M1128.01 172V156H1116.01V172H1100V140C1106.66 138.667 1113.33 137.334 1119.99 136C1119.99 133.333 1119.99 130.667 1119.99 128H1143.99L1144 172H1128.01Z" fill="#F55404"/>
<path d="M712.279 188V167.273H696.737V188H676V146.545C684.634 144.818 693.268 143.091 701.902 141.363C701.902 137.909 701.902 134.455 701.901 131H732.983L733 188H712.279Z" fill="#F55404"/>
<path d="M1525.46 120V105.819H1514.55V120H1500V91.6361C1506.06 90.4546 1512.12 89.2731 1518.18 88.0908C1518.18 85.7269 1518.18 83.3639 1518.18 81H1539.99L1540 120H1525.46Z" fill="#F55404"/>
<path d="M1184.1 115V96.0913H1169.92V115H1151V77.1815C1158.88 75.6062 1166.75 74.0308 1174.63 72.4543C1174.63 69.3025 1174.63 66.1518 1174.63 63H1202.98L1203 115H1184.1Z" fill="#F55404"/>
<path d="M295.824 213V194.819H282.191V213H264V188.003C264 174.195 275.191 163 288.997 163C302.802 163 313.988 174.19 313.992 187.997L314 213H295.824Z" fill="#F55404"/>
<path d="M976.824 53V34.8186H963.191V53H945V28.0034C945 14.1945 956.191 3 969.997 3C983.802 3 994.988 14.19 994.992 27.9966L995 53H976.824Z" fill="#F55404"/>
<path d="M1421.28 104V87.2731H1408.74V104H1392V81.0031C1392 68.299 1402.3 58 1415 58C1427.7 58 1437.99 68.2948 1437.99 80.9969L1438 104H1421.28Z" fill="#F55404"/>
<path d="M1730.28 139V122.273H1717.74V139H1701V116.003C1701 103.299 1711.3 93 1724 93C1736.7 93 1746.99 103.295 1746.99 115.997L1747 139H1730.28Z" fill="#F55404"/>
<path d="M546.824 191V172.819H533.191V191H515V166.003C515 152.195 526.191 141 539.997 141C553.802 141 564.988 152.19 564.992 165.997L565 191H546.824Z" fill="#F55404"/>
<path d="M344 86V128H328.722V112.728H317.267V128H302V86H313.455C313.455 89.8181 313.455 93.6362 313.454 97.4543C323.636 93.6362 333.818 89.8181 344 86Z" fill="#F55404"/>
<path d="M466.5 128V173H450.131V156.637H437.857V173H421.5V128H433.773C433.773 132.091 433.773 136.182 433.772 140.272C444.682 136.182 455.591 132.091 466.5 128Z" fill="#F55404"/>
<path d="M280 91V138H262.903V120.909H250.084V138H233V91H245.819C245.819 95.2726 245.819 99.5453 245.818 103.818C257.212 99.5453 268.606 95.2726 280 91Z" fill="#F55404"/>
<path d="M656 5V52H638.903V34.9095H626.084V52H609V5H621.819C621.819 9.27263 621.819 13.5453 621.818 17.8179C633.212 13.5453 644.606 9.27263 656 5Z" fill="#F55404"/>
<path d="M476 24.0904V53H456.719V33.7277H442.264V53H423V24.0904L437.454 0H461.546L476 24.0904Z" fill="#F55404"/>
</svg>
